<?xml version="1.0" encoding="UTF-8"?>
<!DOCTYPE svg  PUBLIC '-//W3C//DTD SVG 1.1//EN'  'http://www.w3.org/Graphics/SVG/1.1/DTD/svg11.dtd'>
<svg class="icon" height="512" version="1.1" viewBox="0 0 1024 1024" xmlns="http://www.w3.org/2000/svg">
<path d="m768 341.33v85.333h85.333v426.67h-426.67v-85.333h-85.333v170.67h597.33v-597.33h-170.67z" fill="#FFCA28"/>
<path d="m104.28 106.92h603.09v603.14h-603.09v-603.14m158.46 503.94c13.44 28.501 39.893 51.968 85.12 51.968 50.261 0 84.779-26.837 84.779-85.461v-193.66h-56.96v192.34c0 28.8-11.733 36.181-30.165 36.181-19.413 0-27.477-13.397-36.523-29.141l-46.251 27.776m200.41-5.9733c16.725 32.811 50.56 57.941 103.51 57.941 53.632 0 93.824-27.819 93.824-79.104 0-47.232-27.136-68.352-75.392-89.131l-14.08-6.016c-24.448-10.368-34.816-17.408-34.816-34.176 0-13.739 10.368-24.448 27.136-24.448 16.085 0 26.795 7.04 36.523 24.448l43.861-29.141c-18.432-32.171-44.544-44.587-80.384-44.587-50.603 0-83.115 32.171-83.115 74.752 0 46.208 27.136 68.011 68.011 85.419l14.08 6.016c26.155 11.392 41.557 18.432 41.557 37.888 0 16.085-15.104 27.819-38.528 27.819-27.819 0-43.904-14.421-55.979-34.56l-46.208 26.88z" fill="#FFCA28"/>
</svg>
