<?xml version="1.0" encoding="UTF-8"?>
<svg viewBox="0 0 600 600" xmlns="http://www.w3.org/2000/svg">
<g transform="translate(120 470) scale(.1 -.1)">
<circle class="st1" cx="1797" cy="1775.7" r="284.23" fill="#00d8ff" stroke="null"/>
<path class="st2" d="m1797 951.56c512.02 0 987.73 78.101 1346.3 209.25 432.1 158.08 697.82 397.74 697.82 614.76 0 226.13-281.6 480.8-745.59 644.1-350.8 123.51-812.52 188.09-1298.6 188.09-498.4 0-970.21-60.552-1325-189.42-448.87-163.03-719.25-420.91-719.25-642.76 0-215.28 253.74-453.07 679.79-610.87 360-133.29 847.44-213.14 1364.5-213.14z" fill="none" stroke="#00d8ff" stroke-miterlimit="10" stroke-width="244.75"/>
<path class="st2" d="m1122 1366c255.76-471.42 557.14-870.36 843.28-1134.9 344.75-318.83 672.86-443.69 849.71-335.31 184.29 112.93 251.22 499.42 152.52 1008.3-74.622 384.74-252.61 841.96-495.51 1289.5-248.95 458.83-534.08 862.99-816.3 1125.3-357.1 331.83-702.48 451.86-883.24 341.07-175.46-107.57-242.52-459.9-158.45-931.05 71.093-398.41 249.58-886.97 507.98-1362.9z" fill="none" stroke="#00d8ff" stroke-miterlimit="10" stroke-width="244.75"/>
<path class="st2" d="m1122.6 2194.6c-256.51-471.02-431.22-947.66-504.08-1343.3-87.731-476.64-25.714-841.16 151.01-949.8 184.16-113.33 532.56 18.085 898.11 363.04 276.43 260.83 560.17 653.07 803.7 1100.2 249.71 458.42 436.89 922.74 509.62 1313.5 92.143 494.59 17.521 872.51-163.11 983.56-175.34 107.84-496.01-6.2963-838.11-319.1-288.91-264.31-598.11-672.63-857.14-1148.2z" fill="none" stroke="#00d8ff" stroke-miterlimit="10" stroke-width="244.75"/>
</g>
<g transform="translate(0 600) scale(.1 -.1)" fill="#7f00ff">
<path d="m2815 5270c-228-50-372-129-554-304-259-250-421-685-421-1130 0-351 71-646 237-985l76-153-17-36c-11-23-17-60-17-105 0-161 120-280 281-280 207 0 342 223 247 409-47 92-129 144-238 152l-66 5-61 121c-170 342-234 715-187 1091 30 242 100 435 228 624 92 137 177 210 320 276 141 65 237 88 377 89 114 0 131-2 200-28 225-86 398-284 505-581 35-96 75-256 75-302 0-16 6-23 18-23 11 0 67-15 126-34l107-34-7 62c-11 106-52 300-85 392-141 406-407 673-767 770-94 25-271 27-377 4z"/>
<path d="m2644 4091c-151-70-212-238-140-384 48-99 142-157 256-157 78 0 167 45 215 107 19 25 35 50 35 54 0 5 67 9 149 9 262 0 490-52 751-170 423-193 713-488 842-860 31-90 33-102 33-240 0-151-9-197-58-295-151-305-455-464-811-426-114 13-258 46-346 81l-53 21-31-29c-17-16-66-57-109-91l-78-61 46-20c93-40 215-79 316-102 88-19 132-23 284-23 193 0 240 7 395 57 265 84 497 275 601 493 47 98 65 167 78 294 28 268-74 592-262 836-379 490-974 772-1636 776h-116l-37 48c-50 66-111 95-208 99-58 2-85-2-116-17z"/>
<path d="m1538 3442c-214-171-386-416-452-645-39-135-49-204-49-332 0-173 31-311 104-457 70-142 163-243 307-336 246-158 616-206 967-126 311 71 562 187 806 371 230 173 401 380 573 696 8 15 24 27 34 27 35 0 92 30 137 71 101 93 116 255 35 368-80 110-240 148-361 86-50-26-107-93-129-151-34-92-25-171 30-258l31-48-32-56c-96-172-257-361-419-493-137-111-368-247-533-313-257-104-558-131-792-71-310 79-519 339-541 670-15 237 93 475 320 702l111 111-27 94c-14 51-27 103-27 115-1 12-5 24-10 28-5 3-42-21-83-53z"/>
</g>
</svg>
